<?xml version="1.0" encoding="utf-8"?>
<!-- Generator: Adobe Illustrator 22.1.0, SVG Export Plug-In . SVG Version: 6.00 Build 0)  -->
<svg version="1.1" id="Layer_1" xmlns="http://www.w3.org/2000/svg" xmlns:xlink="http://www.w3.org/1999/xlink" x="0px" y="0px"
	 viewBox="0 0 256 256" style="enable-background:new 0 0 256 256;" xml:space="preserve">
<style type="text/css">
	.st0{clip-path:url(#SVGID_2_);fill:#B1B3B5;}
	.st1{clip-path:url(#SVGID_4_);fill:#877118;}
	.st2{clip-path:url(#SVGID_6_);fill:#A46127;}
	.st3{clip-path:url(#SVGID_8_);fill:#DEBCAD;}
	.st4{clip-path:url(#SVGID_10_);fill:#DEBCAD;}
	.st5{clip-path:url(#SVGID_12_);fill:#CAA42C;}
	.st6{clip-path:url(#SVGID_14_);fill:#B19025;}
	.st7{clip-path:url(#SVGID_16_);fill:#9B801F;}
	.st8{clip-path:url(#SVGID_18_);fill:#BA9728;}
	.st9{clip-path:url(#SVGID_20_);fill:#6F5C0C;}
	.st10{clip-path:url(#SVGID_22_);fill:#88511C;}
	.st11{clip-path:url(#SVGID_24_);fill:#DEBCAD;}
	.st12{clip-path:url(#SVGID_26_);fill:#DEBCAD;}
	.st13{clip-path:url(#SVGID_28_);fill:#BA9728;}
	.st14{clip-path:url(#SVGID_30_);fill:#9B801F;}
	.st15{clip-path:url(#SVGID_32_);fill:#877118;}
	.st16{clip-path:url(#SVGID_34_);fill:#B19025;}
	.st17{clip-path:url(#SVGID_36_);fill:#DEBCAD;}
	.st18{clip-path:url(#SVGID_38_);fill:#DEBCAD;}
	.st19{clip-path:url(#SVGID_40_);}
	.st20{fill:#DEBCAD;}
	.st21{fill:#3490E2;}
	.st22{fill:none;stroke:#000000;stroke-miterlimit:10;}
	.st23{fill:none;stroke:#F58039;stroke-width:6;stroke-miterlimit:10;}
</style>
<g>
	<g>
		<defs>
			<circle id="SVGID_1_" cx="128" cy="124.8" r="127.2"/>
		</defs>
		<clipPath id="SVGID_2_">
			<use xlink:href="#SVGID_1_"  style="overflow:visible;"/>
		</clipPath>
		<circle class="st0" cx="128" cy="128" r="128"/>
	</g>
	<g>
		<defs>
			<circle id="SVGID_3_" cx="128" cy="124.8" r="127.2"/>
		</defs>
		<clipPath id="SVGID_4_">
			<use xlink:href="#SVGID_3_"  style="overflow:visible;"/>
		</clipPath>
		<path class="st1" d="M236.6,264.7c9.8-9.3,18.5-19.9,25.6-31.5h-43.9C223.6,243.2,233,259.9,236.6,264.7L236.6,264.7z"/>
	</g>
	<g>
		<defs>
			<circle id="SVGID_5_" cx="128" cy="124.8" r="127.2"/>
		</defs>
		<clipPath id="SVGID_6_">
			<use xlink:href="#SVGID_5_"  style="overflow:visible;"/>
		</clipPath>
		<path class="st2" d="M186.1,187.3c-2.2-1-8.8-1.4-9.2-1.6c-0.7,5.9-1.3,12.1-1.7,18.1C186.4,188.7,188.4,188.3,186.1,187.3z"/>
	</g>
	<g>
		<defs>
			<circle id="SVGID_7_" cx="128" cy="124.8" r="127.2"/>
		</defs>
		<clipPath id="SVGID_8_">
			<use xlink:href="#SVGID_7_"  style="overflow:visible;"/>
		</clipPath>
		<path class="st3" d="M130.3,191.6V281c0,0,33.4-61.4,44.8-76.9l0.1-0.1c0.4-6,1-12.2,1.7-18.1l0.4-2.9c0.4-2.7,0.7-5.2,1.1-7.6
			c-0.7,1.3-1.3,2.7-2.2,4C165.7,196.6,130.3,191.6,130.3,191.6z M187.8,142.8c3.4,2.4,8,5.4,10.3,6.4c3.9,1.6,9.3-6.2,7.8-9.3
			c-1.3-3.1,3.3-9.7,5.6-11.9c2.3-2.3,2.3-14.6,2.3-18.1s0-8.8-3.5-9.5c-2.8-0.6-8.8,2.5-11.2,4c-2.8,10.4-7.2,22.4-9.2,28.7
			C189.1,135.8,188.4,139.2,187.8,142.8z"/>
	</g>
	<g>
		<defs>
			<circle id="SVGID_9_" cx="128" cy="124.8" r="127.2"/>
		</defs>
		<clipPath id="SVGID_10_">
			<use xlink:href="#SVGID_9_"  style="overflow:visible;"/>
		</clipPath>
		<path class="st4" d="M133.1,150.8c2.1-1,4.6-0.1,6,1.6c2.8,2.7,6.8,2.5,9.7,3.6c0,0-6.3,5.6-18.5,5.6v30c0,0,35.4,5.1,45.9-12.3
			l2.2-4c5.9-11.6,7.7-23.2,9.4-32.5c0.6-3.6,1.3-7,2.2-9.8c1.9-6.3,6.4-18.5,9.2-28.7c1.4-5.2,2.4-9.9,2.4-13.3
			c0-10,1.9-43.6-20-59.7s-27-22.9-51-22.9v143.5C130.3,151.7,131.8,152.1,133.1,150.8z"/>
	</g>
	<g>
		<defs>
			<circle id="SVGID_11_" cx="128" cy="124.8" r="127.2"/>
		</defs>
		<clipPath id="SVGID_12_">
			<use xlink:href="#SVGID_11_"  style="overflow:visible;"/>
		</clipPath>
		<path class="st5" d="M183,267.7c-0.6-0.4-1.1-0.7-1.7-1.2l-14.1,36.1c4-1,7.8-2.1,11.6-3.4L183,267.7L183,267.7z M169.3,233.5
			c-0.5-8,0-14,0-14l21.2-31.7c-0.5-0.8-0.8-1.3-1-1.4c-1.7-2.1-12.1-3.4-12.3-3.5l-0.4,2.9c0.5,0,7,0.6,9.2,1.6
			c2.3,1,0.4,1.3-10.9,16.7l-0.1,0.1c-11.3,15.4-44.8,76.9-44.8,76.9v26.2c2.1,0,4.1,0,6-0.1L169.3,233.5z"/>
	</g>
	<g>
		<defs>
			<circle id="SVGID_13_" cx="128" cy="124.8" r="127.2"/>
		</defs>
		<clipPath id="SVGID_14_">
			<use xlink:href="#SVGID_13_"  style="overflow:visible;"/>
		</clipPath>
		<path class="st6" d="M181.4,266.6c-2.4-1.8-4.3-4.1-5.9-6.8c-4.1-7.6-5.7-17.9-6.2-26.2L136.4,307c10.6-0.4,20.9-1.9,30.8-4.3
			L181.4,266.6z"/>
	</g>
	<g>
		<defs>
			<circle id="SVGID_15_" cx="128" cy="124.8" r="127.2"/>
		</defs>
		<clipPath id="SVGID_16_">
			<use xlink:href="#SVGID_15_"  style="overflow:visible;"/>
		</clipPath>
		<path class="st7" d="M218.8,273.6c-10,0.5-25.5,0.7-35.7-5.9l-4.2,31.6c17.4-5.8,33.3-14.5,47.3-25.6
			C223.9,273.6,221.5,273.5,218.8,273.6L218.8,273.6z"/>
	</g>
	<g>
		<defs>
			<circle id="SVGID_17_" cx="128" cy="124.8" r="127.2"/>
		</defs>
		<clipPath id="SVGID_18_">
			<use xlink:href="#SVGID_17_"  style="overflow:visible;"/>
		</clipPath>
		<path class="st8" d="M218.3,233.2c-1.7-3.3-3-5.7-3.5-6.9c-2.3-5.2-24.3-38.4-24.3-38.4l-21.2,31.7c0,0-0.5,6,0,14
			c0.5,8.3,2.1,18.6,6.2,26.2c1.6,2.8,3.5,5.1,5.9,6.8c0.5,0.4,1.1,0.8,1.7,1.2c10.3,6.6,25.8,6.4,35.7,5.9c2.8-0.1,5.2,0,7.4,0.1
			c3.6-2.9,7.1-5.9,10.5-9C233,259.9,223.6,243.2,218.3,233.2L218.3,233.2z"/>
	</g>
	<g>
		<defs>
			<circle id="SVGID_19_" cx="128" cy="124.8" r="127.2"/>
		</defs>
		<clipPath id="SVGID_20_">
			<use xlink:href="#SVGID_19_"  style="overflow:visible;"/>
		</clipPath>
		<path class="st9" d="M42.4,233.2h-44c7.1,11.6,15.7,22.2,25.6,31.5C27.6,259.9,37,243.2,42.4,233.2z"/>
	</g>
	<g>
		<defs>
			<circle id="SVGID_21_" cx="128" cy="124.8" r="127.2"/>
		</defs>
		<clipPath id="SVGID_22_">
			<use xlink:href="#SVGID_21_"  style="overflow:visible;"/>
		</clipPath>
		<path class="st10" d="M74.6,187.3c-2.3,1-0.4,1.3,10.9,16.7c-0.4-6-1-12.2-1.7-18.1C83.4,185.9,76.9,186.4,74.6,187.3z"/>
	</g>
	<g>
		<defs>
			<circle id="SVGID_23_" cx="128" cy="124.8" r="127.2"/>
		</defs>
		<clipPath id="SVGID_24_">
			<use xlink:href="#SVGID_23_"  style="overflow:visible;"/>
		</clipPath>
		<path class="st11" d="M83.9,185.8c0.7,5.9,1.3,12.1,1.6,18.1l0.1,0.1c11.3,15.4,44.8,76.9,44.8,76.9v-89.4c0,0-35.4,5.1-45.9-12.3
			c-0.8-1.3-1.4-2.7-2.2-4c0.4,2.4,0.7,4.9,1.1,7.6L83.9,185.8L83.9,185.8z M61.5,104.2c-2.5-1.3-8.4-4.5-11.2-4
			c-3.5,0.7-3.5,6.2-3.5,9.5c0,3.4,0,15.8,2.3,18.1s6.9,8.8,5.6,11.9c-1.3,3.1,4.1,10.7,7.8,9.3c2.3-1,6.9-4,10.3-6.4
			c-0.6-3.6-1.3-7-2.2-9.8C68.9,126.8,64.3,114.6,61.5,104.2z"/>
	</g>
	<g>
		<defs>
			<circle id="SVGID_25_" cx="128" cy="124.8" r="127.2"/>
		</defs>
		<clipPath id="SVGID_26_">
			<use xlink:href="#SVGID_25_"  style="overflow:visible;"/>
		</clipPath>
		<path class="st12" d="M130.3,191.6v-30c-12.2,0-18.5-5.6-18.5-5.6c2.9-1.1,6.9-1,9.7-3.6c1.4-1.7,4-2.5,6-1.6c1.3,1.2,2.8,1,2.8,1
			V8.4c-24,0-29.1,6.8-51,22.9S59.1,81,59.1,91.1c0,3.4,1,8.1,2.4,13.3c2.8,10.4,7.2,22.4,9.2,28.7c0.8,2.9,1.4,6.2,2.2,9.8
			c1.7,9.4,3.5,20.9,9.4,32.5c0.7,1.3,1.3,2.7,2.2,4C95,196.6,130.3,191.6,130.3,191.6z"/>
	</g>
	<g>
		<defs>
			<circle id="SVGID_27_" cx="128" cy="124.8" r="127.2"/>
		</defs>
		<clipPath id="SVGID_28_">
			<use xlink:href="#SVGID_27_"  style="overflow:visible;"/>
		</clipPath>
		<path class="st13" d="M79.3,266.6c-0.5,0.4-1.1,0.8-1.7,1.2l4.2,31.6c3.9,1.2,7.7,2.4,11.6,3.4L79.3,266.6z M130.3,281
			c0,0-33.4-61.4-44.8-76.9l-0.1-0.1c-11.2-15.2-13.2-15.7-10.9-16.7c2.2-1,8.8-1.4,9.2-1.6l-0.4-2.9c-0.2,0-10.6,1.3-12.3,3.5
			c-0.1,0.1-0.5,0.7-1,1.4l21.2,31.7c0,0,0.5,6,0,14l32.8,73.5c2.1,0.1,4.1,0.1,6,0.1v-26H130.3z"/>
	</g>
	<g>
		<defs>
			<circle id="SVGID_29_" cx="128" cy="124.8" r="127.2"/>
		</defs>
		<clipPath id="SVGID_30_">
			<use xlink:href="#SVGID_29_"  style="overflow:visible;"/>
		</clipPath>
		<path class="st14" d="M91.3,233.5c-0.5,8.3-2.1,18.6-6.2,26.2c-1.6,2.8-3.5,5.1-5.9,6.8l14.1,36.1c9.9,2.4,20.1,3.9,30.8,4.3
			L91.3,233.5z"/>
	</g>
	<g>
		<defs>
			<circle id="SVGID_31_" cx="128" cy="124.8" r="127.2"/>
		</defs>
		<clipPath id="SVGID_32_">
			<use xlink:href="#SVGID_31_"  style="overflow:visible;"/>
		</clipPath>
		<path class="st15" d="M77.6,267.7c-10.3,6.6-25.8,6.4-35.7,5.9c-2.8-0.1-5.2,0-7.4,0.1c14,11.1,30,19.8,47.3,25.6L77.6,267.7z"/>
	</g>
	<g>
		<defs>
			<circle id="SVGID_33_" cx="128" cy="124.8" r="127.2"/>
		</defs>
		<clipPath id="SVGID_34_">
			<use xlink:href="#SVGID_33_"  style="overflow:visible;"/>
		</clipPath>
		<path class="st16" d="M41.9,273.6c10,0.5,25.5,0.7,35.7-5.9c0.6-0.4,1.1-0.7,1.7-1.2c2.4-1.8,4.3-4.1,5.9-6.8
			c4.1-7.6,5.7-17.9,6.2-26.2c0.5-8,0-14,0-14l-21.2-31.7c0,0-22,33.2-24.3,38.4c-0.5,1.2-1.8,3.7-3.5,6.9
			c-5.3,10-14.7,26.7-18.3,31.5c3.4,3.1,6.9,6.2,10.5,9C36.7,273.6,39.1,273.5,41.9,273.6z"/>
	</g>
	<g>
		<defs>
			<circle id="SVGID_35_" cx="128" cy="124.8" r="127.2"/>
		</defs>
		<clipPath id="SVGID_36_">
			<use xlink:href="#SVGID_35_"  style="overflow:visible;"/>
		</clipPath>
		<path class="st17" d="M139.1,152.3c-1.4-1.7-4-2.5-6-1.6c-1.3,1.2-2.8,1-2.8,1v9.8c12.2,0,18.5-5.6,18.5-5.6
			C145.9,155,141.9,155,139.1,152.3z"/>
	</g>
	<g>
		<defs>
			<circle id="SVGID_37_" cx="128" cy="124.8" r="127.2"/>
		</defs>
		<clipPath id="SVGID_38_">
			<use xlink:href="#SVGID_37_"  style="overflow:visible;"/>
		</clipPath>
		<path class="st18" d="M127.5,150.8c-2.1-1-4.6-0.1-6,1.6c-2.8,2.7-6.8,2.5-9.7,3.6c0,0,6.3,5.6,18.5,5.6v-9.8
			C130.3,151.7,128.9,152.1,127.5,150.8L127.5,150.8z"/>
	</g>
	<g>
		<defs>
			<circle id="SVGID_39_" cx="128" cy="124.8" r="127.2"/>
		</defs>
		<clipPath id="SVGID_40_">
			<use xlink:href="#SVGID_39_"  style="overflow:visible;"/>
		</clipPath>
		<g class="st19">
			<g id="XMLID_1_">
				<g>
					<path class="st20" d="M168.8,103.8v2.4c-12.3,0-18.8-9.1-18.8-10.5s6.5-10.5,18.8-10.5l0,0v2.4c-4.7,0-8.4,3.6-8.4,8.1
						C160.4,100.2,164.1,103.8,168.8,103.8z"/>
					<path d="M172.9,95.7c0,2.3-1.9,4-4.1,4c-2.3,0-4.1-1.9-4.1-4c0-1.1,3.5,0.7,4.1,0c0.8-0.8-1.2-4,0-4
						C171.1,91.6,172.9,93.4,172.9,95.7z"/>
					<path class="st21" d="M177.1,95.7c0,4.5-3.7,8.1-8.4,8.1s-8.4-3.6-8.4-8.1s3.7-8.1,8.4-8.1C173.3,87.5,177.1,91.2,177.1,95.7z
						 M172.9,95.7c0-2.3-1.9-4-4.1-4c-1.2,0,0.8,3.2,0,4c-0.7,0.7-4.1-1.1-4.1,0c0,2.3,1.9,4,4.1,4
						C171.1,99.7,172.9,97.9,172.9,95.7z"/>
					<path class="st20" d="M168.8,103.8c4.7,0,8.4-3.6,8.4-8.1s-3.7-8.1-8.4-8.1v-2.4c12.3,0,18.8,9.1,18.8,10.5
						s-6.5,10.5-18.8,10.5l0,0V103.8z"/>
					<path class="st21" d="M97,95.7c0-1.1-3.6,0.7-4.1,0c-0.8-0.8,1.2-4,0-4c-2.3,0-4.1,1.9-4.1,4s1.9,4,4.1,4
						C95.1,99.8,97,97.9,97,95.7z M92.7,103.8c-4.7,0-8.4-3.6-8.4-8.1s3.7-8.1,8.4-8.1c4.7,0,8.4,3.6,8.4,8.1
						C101.1,100.2,97.4,103.8,92.7,103.8z"/>
					<path d="M97,95.7c0,2.3-1.9,4-4.1,4s-4.1-1.9-4.1-4s1.9-4,4.1-4c1.2,0-0.8,3.2,0,4C93.3,96.5,97,94.6,97,95.7z"/>
					<path class="st20" d="M111.5,95.7c0,1.5-6.4,10.5-18.8,10.5l0,0v-2.4c4.7,0,8.4-3.6,8.4-8.1s-3.7-8.1-8.4-8.1v-2.4
						C105.1,85.1,111.5,94.2,111.5,95.7z"/>
					<path class="st20" d="M73.8,95.7c0-1.5,6.4-10.5,18.8-10.5l0,0v2.4c-4.7,0-8.4,3.6-8.4,8.1s3.7,8.1,8.4,8.1v2.4
						C80.4,106.2,73.8,97.1,73.8,95.7z"/>
					<path class="st20" d="M180.7,74.8c4.3,1.5,8.3,8.3,7.9,9.7c-0.5,1.5-8.1-5.5-11.4-6.8s-20,1.5-22.2,1.5s-1.9-6-1.9-5.9
						C168.3,71.3,176.4,73.4,180.7,74.8z"/>
					<path class="st20" d="M108.3,73.2c0,0,0.3,6-1.9,6s-19-2.8-22.2-1.5c-3.2,1.2-11,8.3-11.4,6.7c-0.4-1.5,3.6-8.3,7.9-9.7
						C85.1,73.2,93.2,71.3,108.3,73.2z"/>
				</g>
				<g>
					<path class="st22" d="M92.8,85.1C92.8,85.1,92.7,85.1,92.8,85.1C80.4,85.1,74,94.2,74,95.7s6.4,10.5,18.8,10.5l0,0
						c12.4,0,18.8-9.1,18.8-10.5C111.5,94.2,105.1,85.1,92.8,85.1z"/>
					<ellipse class="st22" cx="92.7" cy="95.7" rx="8.4" ry="8.1"/>
					<path class="st22" d="M97,95.7c0,2.3-1.9,4-4.1,4s-4.1-1.9-4.1-4s1.9-4,4.1-4c1.2,0-0.8,3.2,0,4C93.3,96.5,97,94.6,97,95.7z"/>
					<path class="st22" d="M168.8,85.1L168.8,85.1c-12.4,0-18.8,9.1-18.8,10.5s6.4,10.5,18.8,10.5l0,0c12.3,0,18.8-9.1,18.8-10.5
						S181.1,85.1,168.8,85.1z"/>
					<ellipse class="st22" cx="168.8" cy="95.7" rx="8.4" ry="8.1"/>
					<path class="st22" d="M168.8,95.7c0.8-0.8-1.2-4,0-4c2.3,0,4.1,1.9,4.1,4s-1.9,4-4.1,4c-2.3,0-4.1-1.9-4.1-4
						C164.5,94.6,168.1,96.5,168.8,95.7z"/>
				</g>
			</g>
		</g>
	</g>
</g>
<circle class="st23" cx="127.6" cy="127.4" r="125.6"/>
</svg>
