<?xml version="1.0" encoding="utf-8"?>
<!-- Generator: Adobe Illustrator 22.1.0, SVG Export Plug-In . SVG Version: 6.00 Build 0)  -->
<svg version="1.1" id="Layer_1" xmlns="http://www.w3.org/2000/svg" xmlns:xlink="http://www.w3.org/1999/xlink" x="0px" y="0px"
	 viewBox="0 0 256 256" style="enable-background:new 0 0 256 256;" xml:space="preserve">
<style type="text/css">
	.st0{fill:#B1B3B5;}
	.st1{fill:#68414C;}
	.st2{fill:#7A4E5A;}
	.st3{fill:#CCAD9F;}
	.st4{fill:#DEBCAD;}
	.st5{fill:#6E3123;}
	.st6{fill:#8E4751;}
	.st7{fill:#A2542F;}
	.st8{fill:#864524;}
	.st9{fill:#9D4D5E;}
	.st10{fill:none;}
	.st11{fill:#24150C;}
	.st12{fill:#9A6D5D;}
	.st13{fill:#C08C76;}
	.st14{fill:#32342A;}
	.st15{fill:#171614;}
	.st16{fill:#35261E;}
	.st17{fill:#423129;}
	.st18{fill:none;stroke:#F58039;stroke-width:6;stroke-miterlimit:10;}
</style>
<circle class="st0" cx="128" cy="128" r="128"/>
<path class="st0" d="M155.6,123c-0.7,0.9-3.5,4.7-6.7,8.6c0.3,2.6,0.8,5.2,1.2,7.5c6.7,1.2,12.6,6.9,17.1,13.4
	c1.2,0.6,2.4,1.2,3.8,1.8c-0.4-2.3-2.1-6.5-3.9-10.7c-4.4-5.6-9.2-12.8-11.4-20.7C155.7,122.9,155.7,123,155.6,123L155.6,123z
	 M100.6,134.6c0.2-1,0.3-2,0.4-3.1c-0.5-0.6-1-1.3-1.6-1.9C99.8,131.3,100.2,132.9,100.6,134.6z"/>
<path class="st1" d="M230.6,190.3c0,0-1.5,3.4-3.7,8.9c-0.5,4.3-1.1,8.6-1.9,12.5c4.2-4.8,8-10,11.4-15.4c-0.1-0.3-0.1-0.7-0.1-0.9
	C235.5,190.2,230.6,190.3,230.6,190.3z"/>
<path class="st2" d="M168.5,193.8c0.1-0.5,0.2-1,0.2-1.3c0.1-0.4,0.2-0.9,0.5-1.4l-9.3-1.9L168.5,193.8L168.5,193.8z M180.2,175.5
	c0.5-1,0.8-2,0.7-2.8c0-0.3-0.1-0.6-0.1-0.9c-1.5-0.7-3-1.4-4.4-2.1C177.8,171.6,179.1,173.5,180.2,175.5z M191.9,223.7
	c0,0-3.4,5-9.3,8.1c-0.7,1.7-1.6,3.4-2.5,5.1c0.5,2.5,2.5,4.8,2.5,4.8c-1.4-0.7-2.7-1.6-3.9-2.5c-2,3.2-4.4,6.3-7.1,9.2
	c12.6-4.5,24.2-11,34.6-19c1.5-2.2,2.3-4.2,2.3-4.2C203.9,228,191.9,223.7,191.9,223.7L191.9,223.7z M226.8,199.2
	c2.3-5.5,3.7-8.9,3.7-8.9c-0.9-0.1-1.9-0.2-2.9-0.4C227.4,192.9,227.2,196,226.8,199.2L226.8,199.2z"/>
<path class="st3" d="M156.8,154.3c-0.5-2.7-1-5.6-1.3-8.6c-3.3,3.9-7.1,7.8-10.2,9.4c-6.7,3.5-17.2,4.9-17.2,4.9v96
	c1.9,0,3.9-0.1,5.8-0.1L156.8,154.3L156.8,154.3z M166.8,121.4C166.8,121.4,166.9,121.4,166.8,121.4c0,0,6-4.3,3.4-17.8
	c-0.3-1.3-0.7-2.7-1.1-4c-0.1,1.6-0.2,3.4-0.3,5.3C168.7,109.4,167.9,115.7,166.8,121.4L166.8,121.4z"/>
<path class="st4" d="M142.6,43.1c-1-0.8-2.1-1.4-3.4-1.9L140,43l-6-3l0.9,2.4L128,40v120c0,0,10.5-1.4,17.2-4.9
	c3.1-1.6,6.9-5.5,10.2-9.4c3.7-4.4,6.8-8.7,7.7-9.8c0,0,0.1-0.1,0.1-0.2v-0.1c0,0,2.1-5.9,3.6-14.2c1-5.8,1.9-12,2-16.5
	c0.1-2,0.2-3.7,0.3-5.3c-0.8-2.9-1.6-5.8-2.3-8.6c-0.8-3.2-1.1-7.5-1-12c0-0.1-1.4-23.2-6.7-27.3s-12.2-7.4-12.2-7.4v-1.2l-2.6,1.2
	c0,0-0.7-1.1-1.7-2.5C142.6,41.8,142.6,43.1,142.6,43.1z M151.9,80.7c1.9,0,11,1.4,10.5,6.7c0,0-4.3-5-9.3-4.8s-13.7,4.8-13.7,4.8
	s-2.6-1.4-2.2-3.4C137.8,82.1,150,80.7,151.9,80.7z"/>
<path class="st5" d="M137.3,84.1c-0.5,1.9,2.2,3.4,2.2,3.4s8.6-4.6,13.7-4.8c5-0.2,9.3,4.8,9.3,4.8c0.5-5.3-8.6-6.7-10.5-6.7
	C150,80.7,137.8,82.1,137.3,84.1z"/>
<path class="st6" d="M180.1,236.9c1-1.7,1.8-3.4,2.5-5.1C180.1,233.1,179.7,235.1,180.1,236.9z M168.5,193.8l-8.6-4.6l9.3,1.9
	c1.9-4.1,8.8-10.9,11-15.7c-1.2-1.9-2.4-3.9-3.7-5.8c-5.2-7.4-11.9-13.9-19.6-15.3h-0.1l-23,101.6c13.2-0.6,25.9-3.2,37.8-7.5
	c2.6-3,5-6.1,7.1-9.2C163.1,227.2,167.3,200.9,168.5,193.8L168.5,193.8z"/>
<path class="st7" d="M227.6,189.9c0.4-5.5,0.5-10.3,0.5-13.4c0-9.6-3.6-21.8-9.6-25.4c-6-3.6-10.5-13.4-10.5-16.8s5.7-21.5-4.6-35.5
	S187.1,69,186.2,58.2c-1-10.8-10.3-21.3-12.9-25.9c-2.6-4.6-7.2-19.9-28.3-17.7c0,0-3.6-6.2-17-6.2v18.4c0,0,10.8,1.4,13.9,9.3
	c0,0-2.4-7.7-4.1-10.8c0,0,7.2,9.1,7.2,15.6l-0.7,3.4l2.6-1.2v1.2c0,0,9.8-2.9,14.8,1.7s6.2,11.7,6.2,17.7S165.7,79,165.7,79
	c0,4.5,0.2,8.8,1,12c0.7,2.8,1.6,5.7,2.3,8.6c0.4,1.4,0.7,2.7,1.1,4c-0.4-1.9-0.9-4-1.7-6.3c0,0,5.9,12.5,14.6,17.1
	s15.2,8.2,15.9,16.7c0,0-6.4-7.3-13.9-8c0,0,2.1,5.7,9.9,11c7.8,5.3,12.5,10.5,12.5,10.5s-15.3-9.6-17.9-11.2s10.4,10.5,12.1,11.2
	s10.5,6.9,10.5,6.9s-22.2-9.6-27.3-15c0,0,8.3,9.4,16.1,13.7s14.8,15.8,14.8,15.8s-13.6-13.3-21.2-17.2c-7.7-4-15.5-18.8-15.5-18.8
	s7.8,23.2,16.9,30.9c9.1,7.7,19.5,22.4,15.8,34.2c0,0-7.8-13.1-14.2-18c0,0,14.5,21.2,16,29.1c1.4,7.8-0.3,4.3-0.3,4.3
	s-10.2-23.9-22.8-34.3c0,0-0.2,25.1-4,32.3s2.4-33-2.6-39.4c-1.9-2.4-4.7-5.6-7.6-9.5c2.1,4.9,4,9.6,4.5,12.3
	c0.1,0.3,0.1,0.6,0.1,0.9c0,0.8-0.2,1.8-0.7,2.8c-2.3,4.8-9.1,11.6-11,15.7c-0.2,0.5-0.4,1-0.5,1.4c0,0.3-0.1,0.7-0.2,1.3
	c-1.2,7.1-5.3,33.4,10.2,45.3c1.2,0.9,2.5,1.8,3.9,2.5c0,0-2-2.3-2.5-4.8c-0.4-1.8,0-3.8,2.5-5.1c6-3.1,9.3-8.1,9.3-8.1
	s12,4.3,16.5,1.4c0,0-0.8,2.1-2.3,4.2c6.8-5.3,13.1-11.2,18.7-17.7c0.8-3.8,1.5-8.1,1.9-12.5C227.2,196,227.4,192.9,227.6,189.9
	L227.6,189.9z"/>
<path class="st7" d="M142.6,41.8c-1.4-1.9-3.4-4.2-4.8-4.2l1.4,3.6c1.2,0.5,2.4,1.1,3.4,1.9L142.6,41.8L142.6,41.8z"/>
<path class="st8" d="M128,39.7V40l6.9,2.4L134,40l6,3l-0.7-1.8l-1.4-3.6c1.4,0,3.4,2.3,4.8,4.2c1,1.3,1.7,2.5,1.7,2.5l0.7-3.4
	c0-6.5-7.2-15.6-7.2-15.6c1.7,3.1,4.1,10.8,4.1,10.8c-3.1-7.9-13.9-9.3-13.9-9.3v12.9L128,39.7z M165.8,79c0,0,2.2-9.3,2.2-15.3
	s-1.2-13.2-6.2-17.7c-5-4.6-14.8-1.7-14.8-1.7s6.9,3.4,12.2,7.4C164.4,55.8,165.8,78.9,165.8,79z M166.9,121.4
	C166.9,121.4,166.8,121.4,166.9,121.4c-1.6,8.3-3.7,14.2-3.7,14.2v0.1c2.6,9.1,8.1,17.3,13.1,23.7c3,3.9,5.8,7.1,7.6,9.5
	c4.9,6.4-1.3,46.6,2.6,39.4s4-32.3,4-32.3c12.6,10.4,22.8,34.3,22.8,34.3s1.8,3.5,0.3-4.3c-1.4-7.8-16-29.1-16-29.1
	c6.4,4.9,14.2,18,14.2,18c3.7-11.8-6.7-26.5-15.8-34.2s-16.9-30.9-16.9-30.9s7.8,14.8,15.5,18.8s21.2,17.2,21.2,17.2
	s-7-11.5-14.8-15.8s-16.1-13.7-16.1-13.7c5.1,5.4,27.3,15,27.3,15s-8.8-6.2-10.5-6.9s-14.7-12.8-12.1-11.2s17.9,11.2,17.9,11.2
	s-4.6-5.3-12.5-10.5c-7.8-5.3-9.9-11-9.9-11c7.5,0.6,13.9,8,13.9,8c-0.6-8.5-7.3-12.1-15.9-16.7s-14.6-17.1-14.6-17.1
	c0.8,2.3,1.3,4.4,1.7,6.3C172.9,117.1,166.9,121.4,166.9,121.4L166.9,121.4z"/>
<path class="st0" d="M19.8,195.3c0,0.2-0.1,0.6-0.1,0.9c4.9,7.7,10.6,14.9,16.9,21.4c-5.9-15.1-11.2-27.3-11.2-27.3
	S20.5,190.2,19.8,195.3L19.8,195.3z"/>
<path class="st0" d="M75.7,202.3c-4.6-0.5-10.3-2.1-17.1-5.1c-5.6-2.8-12.2-8.4-12.2-8.4H53l-5-0.8c0,0,18.4-7.5,19.6-15.4
	c0.6-4.5-1.1-8.6-2.2-12.1c-11.1,4.9-22.9,9.4-30,10c0,0,4.6,10.7,9.8,23.9c11.6,11.8,25.9,21.1,41.8,26.8c-4-4.5-7.4-9.4-9.6-14.5
	L75.7,202.3L75.7,202.3z"/>
<path class="st0" d="M125,144c0,0-9.2-1.2-15-4.3c-2.7-1.4-6-4.8-8.9-8.2c-0.1,1-0.3,2.1-0.4,3.1c1,5.2,1.7,10.3,1.4,13.7l18,79.4
	c1.7,0.1,3.4,0.1,5.1,0.1L125,144L125,144z"/>
<path class="st0" d="M125,104V41c0,0-1.4-0.5-3.4-1l1,1.3c-3.3-1.7-9.4,0-9.4,0c-1.5,6.8-5.6,25.6-7,29c-0.4,1.1-1.2,2.7-2.3,4.5
	c1.7,0,12.3,1.2,12.8,3c0.4,1.7-1.9,3-1.9,3s-7.5-3.9-11.9-4.2c-2.8,4.7-7,10.4-10.9,14c0,0,0.9,22.4,3.9,28.8
	c1.1,2.4,2.4,6.1,3.4,10.2c0.5,0.6,1,1.3,1.6,1.9c2.9,3.4,6.2,6.8,8.9,8.2c5.9,3.1,15,4.3,15,4.3L125,104L125,104z"/>
<path class="st0" d="M116.8,77.7c-0.4-1.7-11.1-3-12.8-3c-0.3,0.5-0.6,1.1-1,1.7c4.4,0.2,11.9,4.2,11.9,4.2S117.2,79.4,116.8,77.7z"
	/>
<path class="st0" d="M101.9,148.3c0,0.3-0.1,0.6-0.1,0.9c-1.1,7-4.2,15-4.2,15s2.5,21.1,0.9,24.6c-1.3,2.6-5.1,15.5-22.8,13.5
	l1.6,4.5c2.1,5.1,5.6,10,9.6,14.5c10.4,3.8,21.5,6,33,6.6L101.9,148.3z"/>
<path class="st0" d="M67.5,172.7c-1.1,7.8-19.6,15.4-19.6,15.4l5,0.8h-6.6c0,0,6.7,5.6,12.2,8.4c6.8,3.1,12.4,4.5,17.1,5.1
	c17.7,2,21.5-10.8,22.8-13.5c1.7-3.3-0.9-24.6-0.9-24.6s3.1-8.1,4.2-15c0.1-0.3,0.1-0.6,0.1-0.9c0.3-3.4-0.3-8.6-1.4-13.7
	c-0.3-1.7-0.7-3.4-1.1-5c-1-4.1-2.3-7.9-3.4-10.2c-3.1-6.4-3.9-28.8-3.9-28.8c3.8-3.5,8-9.4,10.9-14.2c0.3-0.6,0.7-1.1,1-1.7
	c1-1.8,1.8-3.3,2.3-4.5c1.4-3.4,5.5-22.2,7-29c1.7-12.4,11.7-13.6,11.7-13.6V11.5c-8.4,0-10.6,1.6-24,7.7S78,51.6,75.2,55.2
	c-2.8,3.7-0.9,17.6-6.2,29.3s-3.8,24,1.5,34.3s-1.9,29.3-5,34.6c-1.3,2.2-1,4.5-0.3,7.2C66.3,164.1,68.2,168.1,67.5,172.7
	L67.5,172.7z M58,184c0,0,20.3-10.7,21.1-20.5c0.9-9.9-2.3-12.9-1.9-16.2c0.4-3.2,2.5-6.6,2.5-6.6s8.4,12.8,5,23.7
	C81.4,175.2,58,184,58,184z M98.1,131l-3.3-5.5l0.9,4c-6.3-13.6-5.9-24.9-5.9-24.9s-2.9,6.9-4.9,11.8c-0.4,1.5-0.9,2.8-1.4,3.8
	c-1.2,2.5-0.2-0.1,1.4-3.8c2.1-7,3.7-17.5,3.7-17.5c-2,3.6-10.7,17.5-10.7,17.5l5-11.7l-3.6,5c0.7-10.2,12-18.6,12-18.6
	C89,104.9,98.1,131,98.1,131z M93.2,63.8l-6.9,9.4c0,0,7.5-14.2,12.8-27.4s14.7-18.9,20.1-21.3c0,0-15,21-20.5,33.2
	S90.2,83.5,81,85.8C81,85.8,89.8,76.2,93.2,63.8z"/>
<path class="st8" d="M123.6,40.2l0.5,0.7c2.3,0.6,3.9,1.2,3.9,1.2L123.6,40.2z"/>
<path class="st0" d="M113.3,41.3c0,0,5.9-1.7,9.4,0l-1-1.3l-0.4-0.6l3.8,1.6V27.6C125,27.6,114.9,28.8,113.3,41.3z M98.6,57.7
	c5.4-12.2,20.5-33.2,20.5-33.2c-5.4,2.5-14.9,8.1-20.1,21.3S86.3,73.2,86.3,73.2l6.9-9.4C89.8,76.1,81,85.7,81,85.7
	C90.3,83.5,93.2,69.9,98.6,57.7z M83.4,120.3c0.4-1,1-2.4,1.4-3.8C83.2,120.3,82.2,122.9,83.4,120.3z"/>
<path class="st0" d="M91.3,91.1c0,0-11.3,8.4-12.1,18.6l3.6-5l-5,11.7c0,0,8.8-13.8,10.7-17.4c0,0-1.6,10.5-3.7,17.5
	c2-4.9,4.9-11.8,4.9-11.8s-0.4,11.3,5.9,24.9l-0.9-4l3.3,5.5C98.1,131,89,104.9,91.3,91.1z M84.9,164.3c3.3-10.9-5-23.7-5-23.7
	s-2.1,3.4-2.5,6.6c-0.4,3.2,2.7,6.4,1.9,16.2c-0.8,9.8-21.1,20.5-21.1,20.5S81.4,175.2,84.9,164.3z"/>
<path class="st0" d="M125.1,118.8c0,0-1.2,0.2-2.4-0.8c-1.7-0.8-3.9-0.1-5.2,1.2c-2.4,2.1-2.5,2.7-5.1,3.5c0,0,2.2,3.8,12.6,3.8
	L125.1,118.8L125.1,118.8z"/>
<path class="st9" d="M127.9,131.1c0,0,1.4,0.2,2.7-0.9c2-0.9,4.5-0.1,5.9,1.4c2.7,2.4,2.9,3.1,5.8,4c0,0-2.5,4.3-14.4,4.3V131.1z"/>
<circle class="st10" cx="125" cy="116.1" r="111.9"/>
<path class="st11" d="M68,169.4c2.3-1.8,4.5-3.8,6.6-5.9c-6.3,3.1-15,7.1-22.5,9.9c-5.2,1.9-30.9,10.5-37.8,13.3
	c3.1,4.5,9,15.9,12.8,19.8C35.8,197.5,62.6,173.8,68,169.4z"/>
<path class="st12" d="M92.3,157.8c-0.3,0.6-0.8,1.1-1.3,1.7c-1.1,1.6-2.6,3.9-3.9,7.3c9.4,20.8,37.9,21.6,37.9,21.6v-28.5
	c0,0-18.7,0.3-23.5-7.8c-2.5-4.3-5.9-8.8-8.7-13c0.3,4,0.5,10.1,0.3,14.5v3.6C93,157,92.7,157.3,92.3,157.8L92.3,157.8z M81.4,103.5
	c0,0,0.7-6.9,0.7-8.8c0-1.7-1.4-6.4-1.6-6.9c-0.9-0.2-1.8,0-2.7,0.4c-2.4,1.8-0.3,5.2,0,7.1s1.6,7.3,1.6,10s2.4,6.9,2.6,9.2
	c0.3,2.3-0.7,5.2,2.4,7.5c0.3,0.3,0.7,0.4,1,0.5c-0.9-4.4-1.8-10-2.4-15.6L81.4,103.5z"/>
<path class="st13" d="M125,159.8V42.4c0,0-2.9-0.2-4.7-1.2c-1.7-1-7.6-1.5-7.6-1.5l-1.1,1.9c-2.4-0.2-16.3,7.3-16.3,7.3
	C94,51.6,94,54.3,94,54.3s-2.7,6.3-2.7,8.8c0,2.5-1.6,10-5.2,20.9s-2.4,24-2.4,24l-0.5-1.1c0.7,5.7,1.6,11.3,2.4,15.6
	c0.5,2.7,1,5,1.6,6.5c0.9,2.7,3,6.2,5.5,9.9c2.9,4.2,6.2,8.7,8.7,13C106.3,160.1,125,159.8,125,159.8L125,159.8z M89.3,85.2
	c2.3-2.1,7.7-6.7,11.6-6.4c3.8,0.3,13.7,3.5,17.1,3.7c0,0,0,4.2-5.7,3.5s-13.1-1.4-16.2-0.5s-7.2,4-8.2,3.9
	C86.9,89.1,87,87.3,89.3,85.2z"/>
<path class="st14" d="M87.9,89.2c1,0.2,5.1-3.1,8.2-3.9c3.1-0.9,10.6-0.2,16.2,0.5c5.7,0.7,5.7-3.5,5.7-3.5
	c-3.4-0.2-13.2-3.3-17.1-3.7c-3.8-0.3-9.4,4.3-11.6,6.4C87,87.3,86.9,89.1,87.9,89.2z"/>
<path class="st14" d="M81.4,103.5l1.7,3.5l0.5,1.1c0,0-1.1-13.2,2.4-24s5.2-18.4,5.2-20.9c0-2.4,2.7-8.8,2.7-8.8s0-2.7,1.3-5.4
	c0,0,13.8-7.5,16.3-7.3l1.1-1.9c0,0,5.8,0.4,7.6,1.5c1.7,1,4.7,1.2,4.7,1.2V8.7c0,0-8.7-1.9-11.8,2.3c-3.1,4.2-4.9-1.5-6.7,0
	c-1.7,1.5-3.3,2.1-5.3,3.1s-5.8,1.9-6,3.1c-0.3,1.2-3.3,1.5-4.7,2.3c-1.4,0.8-5.8,1-6,5c-0.3,3.9-2.7,5.6-2.3,7.1
	c0.4,1.5-1.1,5-1.1,7.1c0,2.1,2,4.2,1.1,7.1c-0.9,3-2.4,7.3-2.7,10.2c-0.3,2.9,0,12,0,12s-2.7,9-1.1,10.7s2.3,8.9,2.3,8.9v0.1
	c0.2,0.6,1.6,5.2,1.6,6.9C82.1,96.6,81.4,103.5,81.4,103.5z"/>
<path class="st15" d="M125,188.3c0,0-28.5-0.7-37.9-21.6c-1.8,4.7-3.3,11.2-3.2,19.9c0.1,6.8,0.1,11.9,0.1,15.7c0,0,0.1,0,0.1-0.1
	l0.8,46.2c12.7,5,25.8,7.4,40.3,7.4L125,188.3z"/>
<path class="st16" d="M83.9,202.3c0-3.8,0-8.9-0.1-15.7c-0.1-8.7,1.4-15.2,3.2-19.9c1.3-3.3,2.7-5.7,3.9-7.3c0.5-0.7,1-1.3,1.3-1.7
	c0.4-0.5,0.8-0.8,0.8-0.8v-10c-4.5,1.6-10.6,9-18.4,16.5c-2.1,2-4.3,3.9-6.6,5.9c-5.5,4.5-32.4,28.3-41.1,37.3
	c6.6,7,11,14.9,19.3,20C52.4,223.8,78.6,205.4,83.9,202.3z"/>
<path class="st17" d="M83.9,202.3c-5.3,3-31.4,21.3-37.6,24.2c5.6,3.4,32.2,19.5,38.5,22L83.9,202.3C84,202.3,84,202.3,83.9,202.3
	L83.9,202.3z"/>
<circle class="st18" cx="127.9" cy="128" r="125.5"/>
</svg>
