<?xml version="1.0" encoding="utf-8"?>
<!-- Generator: Adobe Illustrator 22.1.0, SVG Export Plug-In . SVG Version: 6.00 Build 0)  -->
<svg version="1.1" id="Layer_1" xmlns="http://www.w3.org/2000/svg" xmlns:xlink="http://www.w3.org/1999/xlink" x="0px" y="0px"
	 viewBox="0 0 256 256" style="enable-background:new 0 0 256 256;" xml:space="preserve">
<style type="text/css">
	.st0{fill:#B1B3B5;}
	.st1{fill:#DEBCAD;}
	.st2{fill:#A49892;}
	.st3{fill:#36464C;}
	.st4{fill:#7E522F;}
	.st5{fill:#502610;}
	.st6{fill:#89807C;}
	.st7{fill:#28373C;}
</style>
<circle class="st0" cx="128" cy="128" r="128"/>
<path class="st1" d="M134.4,223.3V212c2.2-3.2,7.4-10.2,12.6-17.1c0.9-6.7,3.4-16.2,1.9-15.4c-2.1,1.1-10.1,11.8-10.1,11.8
	s5.9-11,9-15.3c2.6-3.6,5.3-23.8,6.1-30.6c0.1-0.8,0.2-1.5,0.3-2.2v-0.1c-0.9,1.4-1.9,2.9-2.9,4.5c-7.5,11.3-23.2,11.3-23.2,11.3
	V256h2l10.1-32.7H134.4L134.4,223.3z"/>
<path class="st2" d="M146.9,200.6c-0.4-1-0.3-3.2,0-5.7c-5.2,6.9-10.4,13.9-12.6,17.1v11.3h5.8L130,256c8.5-0.1,16.8-1.1,24.8-2.8
	c3.2-9,7.2-21.1,10.5-34.8C153.5,213.2,148.3,204.2,146.9,200.6L146.9,200.6z M137.6,216.8c0-1.7,1.4-3,3.1-3s3.1,1.3,3.1,3
	s-1.4,3-3.1,3S137.6,218.5,137.6,216.8z M154.9,203.4c0.4,2.5,7,9.8,10.7,13.7c0.2-1,0.5-2.1,0.7-3.2
	C158.4,208.4,154.6,201.2,154.9,203.4z"/>
<path class="st2" d="M143.9,216.8c0-1.7-1.4-3-3.1-3s-3.1,1.3-3.1,3s1.4,3,3.1,3S143.9,218.5,143.9,216.8z"/>
<path class="st3" d="M198.6,189.2c0.9,4.3,1.1,8,1.1,8c3.3,2.2,4.8,11.2,4.8,11.2c-1.2-3.7-9.5-7.2-9.5-7.2
	c4.3,7.5-2.2,22.2-2.2,22.2c-0.2-8.1-23.4-19.8-21.6-13.6s16.4,9.7,16.4,9.7c-9,1-16.1-2-21.3-5.6c-0.2,1.1-0.5,2.1-0.7,3.2
	c1.4,1.5,2.4,2.4,2.4,2.4c-0.9-0.3-1.8-0.7-2.7-1.1c-3.3,13.6-7.2,25.7-10.5,34.8c32.1-6.8,59.7-25.7,77.9-51.6
	c-0.6-0.2-1.2-0.4-1.9-0.5C223,199.4,210.3,194.3,198.6,189.2L198.6,189.2z"/>
<g id="XMLID_2_">
	<g>
		<path class="st1" d="M168.6,79.6c0,5.5-0.2,14.4-0.2,14.4c-2,14.7-5.9,31.9-6.6,35.1l-6,11.1c-1,1.7-1.6,2.8-1.7,2.8
			c-0.9,1.5-1.9,3-2.9,4.5c-7.6,11.3-23.2,11.3-23.2,11.3V139c10.5,0,12.7-3.9,12.7-3.9c-2.5-0.9-2.7-1.5-5.1-3.7
			c-1.2-1.4-3.5-2.1-5.2-1.3c-1.2,1-2.4,0.8-2.4,0.8v-85c0,0,9.2-2.4,11.7,2.7l1.2-0.5l0.6,1.3l3.2-0.4v1.3c0,0,4.7,0.2,7.7,2.6
			l0.4,0.4c4.4,14,12.3,22.9,14.9,25.5C168.3,79.3,168.6,79.6,168.6,79.6z M161,84.4c1.8,0.3-4-6.1-7.9-7.1c0,0-5.9-0.8-15.5,1.6
			c0,0-0.2,3.6,2.6,3.5s7.4-3.6,11-3.5C154.9,79,159.2,84,161,84.4z"/>
	</g>
</g>
<path class="st1" d="M161.1,84.4c1.8,0.4-4-6.1-7.9-7.1c0,0-5.9-0.8-15.5,1.6c0,0-0.1,3.6,2.6,3.5c2.8-0.1,7.4-3.6,11-3.5
	S159.3,84.1,161.1,84.4L161.1,84.4z"/>
<path class="st1" d="M140.7,135.2c-2.5-0.9-2.7-1.5-5.1-3.7c-1.3-1.4-3.5-2.1-5.2-1.3c-1.2,1-2.4,0.8-2.4,0.8v8.1
	C138.5,139.1,140.7,135.2,140.7,135.2L140.7,135.2z"/>
<path class="st4" d="M131.2,19.8l-1.6,3.1l4.6-1.6l-1,3.1c0,0,6-4.1,13.9-1.4l4.4,2.5c0,0-9.9-2.8-13.3-1.2s-5.1,2.6-5.1,2.6h8.5
	c0,0-3.8,1.9-3.1,1.9c0.6,0,16.6,0,21.8,4.7s5.9,8.4,5.9,8.4c0.1,0.1,0.2,0.3,0.4,0.7c4.6,7.8,17.1,14.6,17.1,14.6
	c-8.7-1.9-8.9-3.4-8.9-3.4s-0.7-3.2,0.2,3c0.8,6.2,9.5,12.8,9.5,12.8c-0.8,4,8.7,9.6,8.7,9.6c-4.2,1.8-10.7-1.8-10.7-1.8l4.7,3.4
	c-9.7-2.9-11.5-11.2-12.9-19c-1.1-6.6-6.3-16.4-7.8-19.2c-0.1-0.2-0.3-0.5-0.4-0.7c-0.1-0.1-6.3-8.9-12.7-9.7
	c-6.4-0.8-5.6-0.4-5.6-0.4s7.6,3.1,9.9,5.1c2.3,2,4.9,4.9,4.9,4.9s-8.3-5.4-10.9-5s-2.5,2-2.5,2s5.9,0.8,6.8,1.7s-3.1,1.3-3.1,1.3
	s9.4-0.1,13.3,10.5c0,0-4.9-6-9.7-6.7c0,0,6.6,7.8,7.4,16c0.8,8.3,4.7,17.8,4.7,17.8s9,6.1,19.5,6.7c0,0,5.3,3.4,5.5,10.4l-2.7-4.2
	c0,0,1.5,12.6-0.2,18.2s-2.2,7.2-2.2,7.2s1.3-7.7-0.8-12.5l-0.2,7.5c0,0-2.2-7-4.3-8.8c0,0-2.5,8.1-6.9,13.7l-0.2-5.1l-5.7,6.7
	l1-3.3c0,0-3.3,9.5-9.8,13.3c-0.2,2.2-0.7,11.7,1.8,15.5c2.8,4.3,18.4,12.3,17.2,17.7c0,0-7.7-8.3-13-7.8c0,0,10.9,12.6,9.9,16
	s-1.8,3.8-1.8,3.8l-8-4.8c0,0-12.4,13.6-11.4,19.6c1,6.1,4.8,16.6,4.8,16.6s-12-14.9-9.4-20.5c2.7-5.7,6.9-16.8,6.9-16.8l-3,2.7
	l2.8-7.3l-3,2.7l-0.5-5.7l-2.5,4.2c0,0,3.1-13.7,3.3-25.2c-1,1.7-1.6,2.8-1.7,3s0,0,0,0.1c0,0.2-0.1,1-0.3,2.2
	c-0.8,6.8-3.5,27-6.1,30.6c-3.2,4.3-9,15.3-9,15.3s8-10.7,10.1-11.8c1.5-0.8-1,8.6-1.9,15.4c-0.3,2.5-0.5,4.7,0,5.7
	c1.4,3.6,6.6,12.5,18.4,17.8c0.9,0.4,1.8,0.7,2.7,1.1l-2.4-2.4c-3.7-3.8-10.3-11.1-10.7-13.7c-0.3-2.1,3.5,5,11.4,10.5
	c5.3,3.6,12.4,6.6,21.3,5.6c0,0-14.5-3.5-16.4-9.7s21.4,5.4,21.6,13.6c0,0,6.5-14.7,2.2-22.2c0,0,8.4,3.5,9.5,7.2
	c0,0-1.5-8.9-4.8-11.2c0,0-0.2-3.7-1.1-8c-0.6-2.8-1.5-5.8-2.8-8.2c0,0,12.7-4.5,9.9-9.1s-8.7-17.4-8.9-23.3s1.3-10.5,3.3-16.4
	c2-5.9-3.8-11.8-4.5-15.5s4-1,4.3-11.3s-1-25.9-3-29.1s-7-7.3-6.2-8.9s3.8-5.6,2-8.1c-1.8-2.6-4.5-4.3-5.2-7.3s-1.7-4.3-5.7-6.5
	S161.5,25.7,157.5,21c-4-4.8-16.9-14.8-29.8-10.9v12.7L131.2,19.8z M187.8,119.7c-1.5,7.2-3.2,10.5,0.3,13.3
	c3.5,2.7,3.7,5.3,2.7,6.1c-1,0.9-7.7-1.2-8.2-6.1C182.1,128,187.8,119.7,187.8,119.7z M186.9,208.5c0.7-4.1-2.9-12.2-9.2-14.2
	s-8,6.8-8,6.8s-2-8.1,3-10.5s9.8-10.5,9.8-10.5l-2.8,7.4C192,194.8,186.9,208.5,186.9,208.5z M202.9,172.2c2.2,2.9-8.2,6.2-8.2,6.2
	c-3.8-5.2-7.3-17.4-8.3-20.9C188.8,165.2,200.8,169.5,202.9,172.2z"/>
<path class="st4" d="M144.7,50.4c0,0,4.7,0.2,7.7,2.6c0.1,0.1,0.3,0.2,0.4,0.4c0-0.1,0-0.1-0.1-0.2
	C151.3,48.4,144.7,50.4,144.7,50.4L144.7,50.4z M167.8,78.8c0.5,0.6,0.9,0.8,0.9,0.8S168.3,79.3,167.8,78.8z M139.7,48.7
	c0,0-3.5-7.2-11.7-4.6V46C128,45.9,137.2,43.5,139.7,48.7z M140.9,48.2l0.6,1.2l3.4-2.8L140.9,48.2z M145.3,42l-3.9-4.2l5.4,2.8
	c0,0-4.3-4.7-7-6l4.3,1c0,0-5.2-5.1-16-5.1v11.7C128,42.1,138.7,38.8,145.3,42z M144.7,49v1.4l3.7-1.9L144.7,49z"/>
<path class="st5" d="M139.7,48.7l1.2-0.5l4-1.6l-3.3,2.9l3.2-0.4l3.7-0.5l-3.7,1.9c0,0,6.6-2,8.1,2.8c0,0.1,0,0.1,0.1,0.2
	c4.4,14,12.3,22.8,14.9,25.5c0.5,0.5,0.9,0.8,0.9,0.8s-3.9-9.6-4.7-17.8c-0.8-8.3-7.4-16-7.4-16c4.8,0.7,9.7,6.7,9.7,6.7
	c-3.9-10.7-13.3-10.5-13.3-10.5s4-0.5,3.1-1.3s-6.8-1.7-6.8-1.7s-0.1-1.7,2.5-2s10.9,5,10.9,5s-2.6-2.9-4.9-4.9
	c-2.3-2-9.9-5.1-9.9-5.1s-0.8-0.5,5.6,0.4c6.4,0.8,12.6,9.6,12.7,9.7s-0.6-3.7-5.9-8.4s-21.2-4.7-21.8-4.7s3.1-1.9,3.1-1.9h-8.5
	c0,0,1.8-1.1,5.1-2.6s13.3,1.2,13.3,1.2l-4.4-2.5c-7.9-2.6-13.9,1.4-13.9,1.4l1-3.1l-4.6,1.6l1.6-3.1l-3.2,3.1v7.5
	c10.8,0,16,5.1,16,5.1l-4.3-1c2.8,1.3,7,6,7,6l-5.4-2.8l3.9,4.2c-6.5-3.2-17.3,0.1-17.3,0.1v1.9C136.2,41.4,139.7,48.7,139.7,48.7
	L139.7,48.7z M161.9,129.1v0.5c6.5-3.8,9.8-13.3,9.8-13.3l-1,3.3l5.7-6.7l0.2,5.1c4.3-5.6,6.9-13.7,6.9-13.7
	c2.2,1.8,4.3,8.8,4.3,8.8l0.2-7.5c2.2,4.8,0.8,12.5,0.8,12.5s0.5-1.6,2.2-7.2s0.2-18.2,0.2-18.2l2.7,4.2c-0.2-7-5.5-10.4-5.5-10.4
	c-10.5-0.6-19.5-6.7-19.5-6.7c0,5.4-0.2,14.4-0.2,14.4C166.4,108.7,162.6,126,161.9,129.1L161.9,129.1z"/>
<path class="st5" d="M161.9,129.1l-6,11.1c-0.2,11.5-3.3,25.2-3.3,25.2l2.5-4.2l0.5,5.7l3-2.7l-2.8,7.3l3-2.7c0,0-4.2,11.2-6.9,16.8
	c-2.7,5.7,9.4,20.5,9.4,20.5s-3.8-10.5-4.8-16.6s11.4-19.6,11.4-19.6l8,4.8c0,0,0.8-0.5,1.8-3.8c1-3.4-9.9-16-9.9-16
	c5.3-0.5,13,7.8,13,7.8c1.2-5.4-14.4-13.4-17.2-17.7c-2.5-3.8-1.9-13.3-1.8-15.5C161.8,129.3,161.9,129.1,161.9,129.1L161.9,129.1z"
	/>
<path class="st5" d="M190.8,139.1c1-0.9,0.8-3.4-2.7-6.1c-3.5-2.7-1.8-6.1-0.3-13.3c0,0-5.7,8.3-5.2,13.3
	C183.1,137.9,189.8,139.9,190.8,139.1z M186.4,157.5c0.9,3.5,4.4,15.7,8.3,20.9c0,0,10.4-3.4,8.2-6.2
	C200.8,169.5,188.8,165.2,186.4,157.5z M186.4,157.5c-0.2-0.6-0.3-1-0.3-1C186.2,156.9,186.3,157.2,186.4,157.5z M187.2,80.8
	l-4.7-3.4c0,0,6.5,3.5,10.7,1.8c0,0-9.5-5.6-8.7-9.6c0,0-8.7-6.5-9.5-12.8c-0.8-6.2-0.2-3-0.2-3s0.2,1.4,8.9,3.4
	c0,0-12.5-6.7-17.1-14.6c1.5,2.8,6.6,12.5,7.8,19.2C175.7,69.6,177.5,77.9,187.2,80.8z M166.2,41.9c0.1,0.2,0.3,0.5,0.4,0.7
	C166.4,42.2,166.2,42,166.2,41.9z"/>
<path class="st5" d="M182.5,180c0,0-4.8,8.1-9.8,10.5s-3,10.5-3,10.5s1.7-8.9,8-6.8c6.3,2,9.9,10.2,9.2,14.2c0,0,5.1-13.7-7.2-21.1
	L182.5,180L182.5,180z"/>
<path class="st1" d="M104.8,147.6c-1-1.5-2-3-2.9-4.5s0,0,0,0.1c0.1,0.7,0.2,1.4,0.3,2.2c0.8,6.8,3.5,27,6.1,30.6
	c3.2,4.3,9,15.3,9,15.3s-8-10.7-10.1-11.8c-1.5-0.8,1,8.6,1.9,15.4c5.2,6.9,10.4,13.9,12.6,17.1v11.3h-5.8L126,256h2v-97.1
	C128,158.9,112.4,158.9,104.8,147.6L104.8,147.6z"/>
<path class="st6" d="M101.1,203.4c0.3-2.1-3.5,5-11.4,10.5c0.2,1.1,0.5,2.1,0.7,3.2C94.1,213.2,100.7,205.9,101.1,203.4z
	 M121.6,223.3V212c-2.2-3.2-7.4-10.2-12.6-17.1c0.3,2.5,0.5,4.7,0,5.7c-1.4,3.6-6.6,12.5-18.4,17.8c3.3,13.6,7.2,25.7,10.5,34.8
	c8,1.7,16.3,2.7,24.8,2.8l-10.1-32.7H121.6L121.6,223.3z M115.3,213.9c1.7,0,3.1,1.3,3.1,3s-1.4,3-3.1,3s-3.1-1.3-3.1-3
	C112.1,215.2,113.5,213.9,115.3,213.9z"/>
<path class="st2" d="M115.3,219.8c1.7,0,3.1-1.3,3.1-3s-1.4-3-3.1-3s-3.1,1.3-3.1,3C112.1,218.5,113.5,219.8,115.3,219.8z"/>
<path class="st7" d="M88,219.5l2.4-2.4c-0.2-1-0.5-2.1-0.7-3.2c-5.3,3.6-12.4,6.6-21.3,5.6c0,0,14.5-3.5,16.4-9.7
	c1.8-6.2-21.4,5.4-21.6,13.6c0,0-6.5-14.7-2.2-22.2c0,0-8.4,3.5-9.5,7.2c0,0,1.5-8.9,4.8-11.2c0,0,0.2-3.7,1.1-8
	C45.7,194.3,33,199.4,25.1,201c-0.6,0.1-1.2,0.3-1.9,0.5c18.2,25.9,45.9,44.8,77.9,51.6c-3.2-9-7.2-21.1-10.5-34.8
	C89.9,218.8,89,219.1,88,219.5L88,219.5z"/>
<g id="XMLID_1_">
	<g>
		<path class="st1" d="M128,139.1V159c0,0-15.7,0-23.2-11.3c-1-1.6-2-3.1-2.9-4.5c-0.1-0.2-0.7-1.3-1.7-3l-6-11.1
			c-0.8-3.1-4.6-20.4-6.6-35.1c0,0-0.2-9-0.2-14.4c0,0,13.9-9.9,17.1-12C113.7,62.1,128,46,128,46v85c0,0-1.2,0.2-2.4-0.8
			c-1.7-0.8-3.9-0.1-5.2,1.3c-2.4,2.2-2.6,2.8-5.1,3.7C115.3,135.2,117.5,139.1,128,139.1z M115.7,82.4c2.7,0.1,2.6-3.5,2.6-3.5
			c-9.6-2.4-15.5-1.6-15.5-1.6c-3.9,1-9.7,7.5-7.9,7.1c1.8-0.3,6.2-5.4,9.8-5.5S112.9,82.3,115.7,82.4z"/>
	</g>
</g>
<path class="st1" d="M115.8,82.4c2.8,0.1,2.6-3.5,2.6-3.5c-9.6-2.4-15.5-1.6-15.5-1.6c-3.9,1-9.7,7.4-7.9,7.1
	c1.8-0.4,6.1-5.4,9.8-5.5C108.4,78.8,113,82.3,115.8,82.4z"/>
<path class="st1" d="M125.6,130.2c-1.7-0.8-4-0.1-5.2,1.3c-2.4,2.2-2.6,2.8-5.1,3.7c0,0,2.2,3.9,12.7,3.9V131
	C128,131,126.8,131.2,125.6,130.2z"/>
<path class="st4" d="M51.4,208.3c1.2-3.7,9.5-7.2,9.5-7.2c-4.3,7.5,2.2,22.2,2.2,22.2c0.2-8.1,23.4-19.8,21.6-13.6
	c-1.8,6.2-16.4,9.7-16.4,9.7c9,1,16.1-2,21.3-5.6c8-5.5,11.7-12.6,11.4-10.5c-0.4,2.5-7,9.8-10.7,13.7c-1.4,1.5-2.4,2.4-2.4,2.4
	c0.9-0.3,1.8-0.7,2.7-1.1c11.8-5.2,17-14.2,18.4-17.8c0.4-1,0.3-3.2,0-5.7c-0.9-6.7-3.4-16.2-1.9-15.4c2.1,1.1,10.1,11.8,10.1,11.8
	s-5.9-11-9-15.3c-2.6-3.6-5.3-23.8-6.1-30.6c-0.1-1.2-0.2-2-0.3-2.2V143c-0.1-0.1-0.7-1.3-1.7-3c0.2,11.5,3.3,25.2,3.3,25.2
	l-2.5-4.2l-0.5,5.7l-3-2.7l2.8,7.3l-3-2.7c0,0,4.2,11.2,6.9,16.8c2.7,5.7-9.4,20.5-9.4,20.5s3.8-10.5,4.8-16.6s-11.4-19.6-11.4-19.6
	l-8,4.8c0,0-0.8-0.5-1.8-3.8c-1-3.4,9.9-16,9.9-16c-5.3-0.5-13,7.8-13,7.8c-1.2-5.4,14.4-13.4,17.2-17.7c2.5-3.8,1.9-13.3,1.8-15.5
	c-6.5-3.8-9.8-13.3-9.8-13.3l1,3.3l-5.7-6.7l-0.2,5.1c-4.3-5.6-6.9-13.7-6.9-13.7c-2.2,1.8-4.3,8.8-4.3,8.8l-0.2-7.5
	c-2.2,4.8-0.8,12.5-0.8,12.5s-0.5-1.6-2.2-7.2c-1.7-5.6-0.2-18.2-0.2-18.2l-2.7,4.2c0.2-7,5.5-10.4,5.5-10.4
	c10.5-0.6,19.5-6.7,19.5-6.7s13.9-9.9,17.1-12c9.2-5.5,23.5-21.6,23.5-21.6V44c0,0-4.4,2.9-14,12c-7.5,7.2-23.1,16.7-29.3,20.4
	c-0.9,0.6-1.8,1.1-2.7,1.6c0,0,1-0.6,2.7-1.6c9.6-6.2,23.7-20.7,23.7-20.7c-3.6,2.3-18.6,13.6-18.6,13.6
	C107.4,51.1,128,42.1,128,42.1V30.4c0,0-12,0-34.5,10.4c0,0,14.4-9.9,19.4-11.3L104,32c0,0,4.1-5.7,14.4-6.1l-3.2-2.7
	c0,0,8.9,1,10.5,3.2l-2-6.7l4.3,3.1V10.2c-12.9-4-25.7,6.1-29.8,10.9C94.2,25.8,78,43.2,74,45.4s-5,3.4-5.7,6.5
	c-0.7,3-3.3,4.8-5.2,7.3s1.2,6.5,2,8.1s-4.2,5.7-6.2,8.9s-3.3,18.7-3,29.1s5,7.7,4.3,11.3c-0.7,3.7-6.5,9.6-4.5,15.5
	c2,5.9,3.5,10.5,3.3,16.4s-6,18.7-8.9,23.3s9.9,9.1,9.9,9.1c-1.3,2.4-2.2,5.4-2.8,8.2c-0.9,4.3-1.1,8-1.1,8
	C52.9,199.4,51.4,208.3,51.4,208.3z M71.4,69.6c0,0,8.7-6.5,9.5-12.8s0.2-3,0.2-3s-0.2,1.4-8.9,3.4c0,0,12.5-6.7,17.1-14.6
	c0.3-0.5,0.4-0.8,0.4-0.8c-0.1,0.3-0.3,0.5-0.4,0.8c-1.5,2.8-6.6,12.5-7.8,19.2c-1.3,7.8-3.2,16.1-12.9,19l4.7-3.4
	c0,0-6.5,3.5-10.7,1.8C62.7,79.2,72.3,73.6,71.4,69.6L71.4,69.6z M67.9,132.9c3.5-2.7,1.8-6.1,0.3-13.3c0,0,5.7,8.3,5.2,13.3
	c-0.5,4.9-7.2,7-8.2,6.1C64.2,138.2,64.4,135.7,67.9,132.9z M53.1,172.2c2.1-2.8,14-7,16.5-14.7c0.2-0.6,0.3-1,0.3-1
	c-0.1,0.3-0.2,0.6-0.3,1c-0.9,3.5-4.4,15.7-8.3,20.9C61.3,178.5,50.9,175.1,53.1,172.2z M73.5,180c0,0,4.8,8.1,9.8,10.5
	s3,10.5,3,10.5s-1.7-8.9-8-6.8c-6.3,2-9.9,10.2-9.2,14.2c0,0-5.1-13.7,7.2-21.1L73.5,180L73.5,180z"/>
<path class="st5" d="M94.1,129.1c-0.7-3.2-4.6-20.4-6.6-35.1c0,0-0.2-8.9-0.2-14.4c0,0-9,6.1-19.5,6.7c0,0-5.3,3.4-5.5,10.4l2.7-4.2
	c0,0-1.5,12.6,0.2,18.2s2.2,7.2,2.2,7.2s-1.3-7.7,0.8-12.5l0.2,7.5c0,0,2.2-7,4.3-8.8c0,0,2.5,8.1,6.9,13.7l0.2-5.1l5.7,6.7l-1-3.3
	c0,0,3.3,9.5,9.8,13.3C94.2,129.3,94.1,129.1,94.1,129.1L94.1,129.1z"/>
<path class="st5" d="M94.1,129.1v0.5c0.2,2.2,0.7,11.7-1.8,15.5c-2.8,4.3-18.4,12.3-17.2,17.7c0,0,7.7-8.3,13-7.8
	c0,0-10.9,12.6-9.9,16s1.8,3.8,1.8,3.8l8-4.8c0,0,12.4,13.6,11.4,19.6c-1,6.1-4.8,16.6-4.8,16.6s12-14.9,9.4-20.5
	c-2.7-5.7-6.9-16.8-6.9-16.8l3,2.7l-2.8-7.3l3,2.7l0.5-5.7l2.5,4.2c0,0-3.1-13.7-3.3-25.2L94.1,129.1L94.1,129.1z"/>
<path class="st5" d="M73.4,132.9c0.5-4.9-5.2-13.3-5.2-13.3c1.5,7.2,3.2,10.5-0.3,13.3c-3.5,2.7-3.7,5.3-2.7,6.1
	C66.2,139.9,72.9,137.9,73.4,132.9z M69.6,157.5c-2.4,7.7-14.4,11.9-16.5,14.7c-2.2,2.9,8.2,6.2,8.2,6.2
	C65.1,173.3,68.6,161,69.6,157.5z M69.6,157.5c0.1-0.3,0.2-0.6,0.3-1C69.8,156.6,69.7,156.9,69.6,157.5z M89.4,42.6
	c0.2-0.3,0.3-0.5,0.4-0.8C89.8,41.9,89.7,42.1,89.4,42.6z M73.4,77.5l-4.7,3.4c9.7-2.9,11.5-11.2,12.9-19c1.1-6.6,6.3-16.4,7.8-19.2
	c-4.6,7.8-17.1,14.6-17.1,14.6c8.7-1.9,8.9-3.4,8.9-3.4s0.7-3.2-0.2,3s-9.5,12.8-9.5,12.8c0.8,4-8.7,9.6-8.7,9.6
	C66.9,81,73.4,77.5,73.4,77.5L73.4,77.5z"/>
<path class="st5" d="M69.1,208.5c-0.7-4.1,2.9-12.2,9.2-14.2c6.3-2,8,6.8,8,6.8s2-8.1-3-10.5s-9.8-10.5-9.8-10.5l2.8,7.4
	C64,194.8,69.1,208.5,69.1,208.5z M84.7,76.4C83,77.4,82,78,82,78C82.9,77.5,83.8,77,84.7,76.4z M89.8,69.3c0,0,14.9-11.3,18.6-13.6
	c0,0-14,14.5-23.7,20.7c6.2-3.7,21.8-13.2,29.3-20.4c9.5-9.1,14-12,14-12v-1.9C128,42.1,107.4,51.1,89.8,69.3z M123.7,19.8l2,6.7
	c-1.7-2.2-10.5-3.2-10.5-3.2l3.2,2.7C108,26.3,104,32,104,32l8.9-2.6c-5,1.4-19.4,11.3-19.4,11.3C116,30.5,128,30.4,128,30.4v-7.5
	L123.7,19.8z"/>
</svg>
